<svg width="11" height="10" viewBox="0 0 11 10" fill="none" xmlns="http://www.w3.org/2000/svg">
<path d="M5.40455 0.553236L6.85962 3.40177L6.91896 3.51792L7.04817 3.53571L10.2845 3.98117L7.94575 6.20468L7.8483 6.29733L7.87188 6.42972L8.42757 9.54905L5.51619 8.0653L5.40219 8.00721L5.2884 8.06569L2.40614 9.54694L2.96146 6.42972L2.98504 6.29733L2.88759 6.20468L0.548815 3.98117L3.78517 3.53571L3.91545 3.51778L3.97448 3.40026L5.40455 0.553236Z" stroke="#CBCBCB" stroke-width="0.5"/>
<path d="M5.40455 0.553236L6.85962 3.40177L6.91896 3.51792L7.04817 3.53571L10.2845 3.98117L7.94575 6.20468L7.8483 6.29733L7.87188 6.42972L8.42757 9.54905L5.51619 8.0653L5.40219 8.00721L5.2884 8.06569L2.40614 9.54694L2.96146 6.42972L2.98504 6.29733L2.88759 6.20468L0.548815 3.98117L3.78517 3.53571L3.91545 3.51778L3.97448 3.40026L5.40455 0.553236Z" stroke="#BBCEDD" stroke-width="0.5"/>
</svg>